<?xml version="1.0" encoding="UTF-8"?>
<svg version="1.1" xmlns="http://www.w3.org/2000/svg" width="500" height="500">
<path d="M0 0 C165 0 330 0 500 0 C500 165 500 330 500 500 C335 500 170 500 0 500 C0 335 0 170 0 0 Z " fill="#FEFEFE" transform="translate(0,0)"/>
<path d="M0 0 C4.83000745 3.96750612 7.40444802 9.3075777 8.390625 15.421875 C8.69226055 22.18712951 6.62407396 27.83811203 4 34 C7.08469706 33.94802079 10.16661559 33.85292865 13.25 33.75 C14.12269531 33.73582031 14.99539062 33.72164062 15.89453125 33.70703125 C21.15509374 33.55833294 21.15509374 33.55833294 25.609375 30.953125 C26.06828125 30.30859375 26.5271875 29.6640625 27 29 C27.99 31.475 27.99 31.475 29 34 C30.37551025 33.9685791 30.37551025 33.9685791 31.77880859 33.93652344 C35.22683035 33.86778054 38.67410935 33.81792848 42.12255859 33.78027344 C43.60640048 33.76033019 45.09016555 33.7331651 46.57373047 33.69824219 C59.62905093 33.39892938 69.37499668 35.3281221 79.5 44.1875 C84.21352229 49.49021258 88.21691851 55.04598219 90 62 C95.90197574 62.68261285 101.12770747 63.17445851 107 62 C107.99 62.33 108.98 62.66 110 63 C112.25629652 63.0290867 114.49190079 62.93519878 116.74609375 62.83984375 C119.27109187 63.01926303 120.8281292 63.73843496 123 65 C123.99 64.34 124.98 63.68 126 63 C128.3046875 62.59375 128.3046875 62.59375 130.875 62.5 C131.71804688 62.4484375 132.56109375 62.396875 133.4296875 62.34375 C136.55323218 63.14125077 138.1129584 64.56576411 140.04492188 67.12402344 C141.81457813 70.60000469 141.52246476 74.06333204 141.3125 77.875 C141.27866211 79.050625 141.27866211 79.050625 141.24414062 80.25 C141.18568018 82.1675026 141.09601283 84.0840106 141 86 C142.32 86.33 143.64 86.66 145 87 C144.67 87.99 144.34 88.98 144 90 C139.05 90 134.1 90 129 90 C129.33 88.68 129.66 87.36 130 86 C130.99 86 131.98 86 133 86 C132.67 80.72 132.34 75.44 132 70 C127.28941438 68.6278958 127.28941438 68.6278958 124 70 C124 75.28 124 80.56 124 86 C125.32 86 126.64 86 128 86 C128 87.32 128 88.64 128 90 C123.05 90 118.1 90 113 90 C113 88.68 113 87.36 113 86 C114.32 86 115.64 86 117 86 C116.67 80.72 116.34 75.44 116 70 C111.39467611 68.54685336 111.39467611 68.54685336 109 70 C108.68758545 72.71446979 108.48663408 75.33909361 108.375 78.0625 C108.31699219 79.20041992 108.31699219 79.20041992 108.2578125 80.36132812 C108.16326438 82.24047195 108.08053244 84.12020336 108 86 C109.32 86.33 110.64 86.66 112 87 C112 87.99 112 88.98 112 90 C107.05 90 102.1 90 97 90 C97 88.68 97 87.36 97 86 C97.99 86 98.98 86 100 86 C99.67 80.72 99.34 75.44 99 70 C98.34 70.99 97.68 71.98 97 73 C93.875 73.1875 93.875 73.1875 91 73 C91 72.01 91 71.02 91 70 C90.34 70 89.68 70 89 70 C88.67 75.28 88.34 80.56 88 86 C89.32 86.33 90.64 86.66 92 87 C91.01 88.98 91.01 88.98 90 91 C88.02 91 86.04 91 84 91 C83.6596875 91.8353125 83.6596875 91.8353125 83.3125 92.6875 C79.16820101 99.98936013 71.58356008 104.86248955 63.75537109 107.37109375 C58.22654709 108.63303338 52.58591045 108.58239933 46.9375 108.6875 C45.69033203 108.72166016 44.44316406 108.75582031 43.15820312 108.79101562 C40.10555873 108.87288731 37.05317966 108.94223628 34 109 C34.99 110.1446875 34.99 110.1446875 36 111.3125 C38 114 38 114 38 117 C32.69356959 117.50537432 30.13319688 116.30655751 26 113 C25.6501001 112.30237549 25.3002002 111.60475098 24.93969727 110.88598633 C22.1395433 108.16336966 19.80198941 108.53387734 16.00291443 108.52116394 C15.0622261 108.53867203 14.12153778 108.55618011 13.15234375 108.57421875 C12.18470596 108.57750687 11.21706818 108.58079498 10.22010803 108.58418274 C8.17490922 108.59460664 6.12974011 108.61456169 4.0847168 108.64331055 C0.9462875 108.68737662 -2.19137781 108.70474293 -5.33007812 108.71679688 C-7.31511525 108.73022099 -9.30014293 108.74514397 -11.28515625 108.76171875 C-12.2278688 108.76910568 -13.17058136 108.77649261 -14.14186096 108.78410339 C-15.01293991 108.79693863 -15.88401886 108.80977386 -16.78149414 108.82299805 C-17.54965958 108.83284225 -18.31782501 108.84268646 -19.10926819 108.85282898 C-21.0888479 108.88756797 -21.0888479 108.88756797 -23 110 C-23.99 109.67 -24.98 109.34 -26 109 C-27.94982259 108.88869934 -29.9001225 108.78154994 -31.85180664 108.70996094 C-46.83982321 108.1497816 -56.65935266 104.0474764 -67 93 C-68.80029703 91.14030231 -70.48279821 89.63495745 -72.5625 88.0625 C-75.72437361 85.38706849 -76.83336628 83.47157053 -77.30078125 79.34375 C-77.30464844 78.4053125 -77.30851563 77.466875 -77.3125 76.5 C-77.32925781 75.5615625 -77.34601563 74.623125 -77.36328125 73.65625 C-76.93683093 70.53811862 -75.9068942 69.4490504 -74 67 C-73.33126837 64.93648525 -72.73231105 62.84963712 -72.1875 60.75 C-69.19225655 50.64529192 -62.92850446 43.15710267 -53.8515625 37.7109375 C-48.52956819 34.9609107 -44.28167014 33.8656944 -38.25 33.9375 C-37.26515625 33.94652344 -36.2803125 33.95554688 -35.265625 33.96484375 C-34.14414063 33.98224609 -34.14414063 33.98224609 -33 34 C-32.96132812 33.1646875 -32.96132812 33.1646875 -32.921875 32.3125 C-32.32358382 24.2627641 -29.57950017 17.92821893 -24 12 C-22.68453204 11.29873951 -21.35301051 10.62576736 -20 10 C-19.35165346 11.269553 -18.70642185 12.54069706 -18.0625 13.8125 C-17.52302734 14.87404297 -17.52302734 14.87404297 -16.97265625 15.95703125 C-14.17450529 21.83427202 -14.9365132 27.58783322 -15 34 C-7.08 33.505 -7.08 33.505 1 33 C0.01 31.22625 -0.98 29.4525 -2 27.625 C-5.4241939 20.71169857 -6.44032519 15.60263917 -4.12109375 8.19140625 C-1.57949309 1.57949309 -1.57949309 1.57949309 0 0 Z " fill="#F0ECE6" transform="translate(227,179)"/>
<path d="M0 0 C0 12.21 0 24.42 0 37 C1.65 37 3.3 37 5 37 C5 26.77 5 16.54 5 6 C3.68 5.67 2.36 5.34 1 5 C1.33 3.68 1.66 2.36 2 1 C3.64432706 0.63890458 5.2905208 0.28629924 6.9375 -0.0625 C7.85402344 -0.25972656 8.77054688 -0.45695313 9.71484375 -0.66015625 C10.46894531 -0.77230469 11.22304687 -0.88445312 12 -1 C13 0 13 0 13.11352539 3.51000977 C13.11336626 5.07048422 13.10767142 6.63096393 13.09765625 8.19140625 C13.0962413 9.01124496 13.09482635 9.83108368 13.09336853 10.67576599 C13.08775289 13.30471382 13.07519779 15.93357773 13.0625 18.5625 C13.05748701 20.34049357 13.05292376 22.11848846 13.04882812 23.89648438 C13.03777839 28.26435545 13.02050331 32.63216348 13 37 C13.66 37 14.32 37 15 37 C14.938125 35.906875 14.87625 34.81375 14.8125 33.6875 C15 30 15 30 16.375 28.0625 C18 27 18 27 20 27 C20 26.34 20 25.68 20 25 C19.01 24.67 18.02 24.34 17 24 C16.75 20.6875 16.75 20.6875 17 17 C19.18284363 14.76615536 20.55087135 14.06142495 23.65625 13.63671875 C24.5946875 13.65347656 25.533125 13.67023438 26.5 13.6875 C27.90765625 13.69330078 27.90765625 13.69330078 29.34375 13.69921875 C32.08477666 14.00959971 33.70371156 14.49431964 36 16 C38.06723714 19.10085571 38.24497423 19.72931681 38.1953125 23.23046875 C38.18886719 24.03291016 38.18242188 24.83535156 38.17578125 25.66210938 C38.15902344 26.49548828 38.14226562 27.32886719 38.125 28.1875 C38.11597656 29.03248047 38.10695312 29.87746094 38.09765625 30.74804688 C38.07410703 32.83215243 38.03823647 34.91611217 38 37 C38.66 37 39.32 37 40 37 C41.24786516 31.38915262 41.24786516 31.38915262 40 26 C39.56976202 22.12785818 39.68330914 20.47503629 41.875 17.1875 C44.82619486 14.14950529 46.46429847 13.86550576 50.5703125 13.68359375 C51.46621094 13.64169922 52.36210937 13.59980469 53.28515625 13.55664062 C54.22230469 13.51732422 55.15945312 13.47800781 56.125 13.4375 C57.54232422 13.37272461 57.54232422 13.37272461 58.98828125 13.30664062 C61.32537092 13.20040928 63.6625683 13.09836824 66 13 C66.495 15.475 66.495 15.475 67 18 C65.68 18.33 64.36 18.66 63 19 C63.103125 20.216875 63.20625 21.43375 63.3125 22.6875 C63.32541001 26.32812344 63.0909207 26.88450614 60.6875 29.9375 C57.12447062 32.67191789 54.67560729 33.12573344 50.3125 33.0625 C49.10013672 33.04896484 49.10013672 33.04896484 47.86328125 33.03515625 C47.24839844 33.02355469 46.63351563 33.01195312 46 33 C46 33.66 46 34.32 46 35 C47.53720703 34.94779297 47.53720703 34.94779297 49.10546875 34.89453125 C50.46612936 34.86637965 51.8268078 34.83908096 53.1875 34.8125 C54.19780273 34.77479492 54.19780273 34.77479492 55.22851562 34.73632812 C59.69751197 34.67092818 62.45618488 35.24369935 66 38 C67.44430855 40.88861709 67.37688506 42.79647701 67 46 C64.05832899 49.6981007 61.45107515 51.56088271 57 53 C53.84375 53.3359375 53.84375 53.3359375 50.5 53.375 C49.3965625 53.40335937 48.293125 53.43171875 47.15625 53.4609375 C43.3106258 52.89932406 41.66803415 51.79132593 39 49 C38.6875 45.25 38.6875 45.25 39 42 C37.9171875 42.0309375 37.9171875 42.0309375 36.8125 42.0625 C34 42 34 42 31.3125 41.4375 C28.98465993 40.75530115 28.98465993 40.75530115 27 42 C19.69565217 42.23188406 19.69565217 42.23188406 16 41 C14.66471193 40.91455709 13.32556112 40.88225375 11.98754883 40.88647461 C11.18694534 40.88655014 10.38634186 40.88662567 9.56147766 40.88670349 C8.27227669 40.89444542 8.27227669 40.89444542 6.95703125 40.90234375 C6.0734343 40.9037587 5.18983734 40.90517365 4.27946472 40.90663147 C1.45710872 40.91222931 -1.36516797 40.92478139 -4.1875 40.9375 C-6.10091031 40.94251528 -8.01432187 40.94707814 -9.92773438 40.95117188 C-14.61852014 40.96219803 -19.30924663 40.97946117 -24 41 C-24 39.68 -24 38.36 -24 37 C-22.68 37 -21.36 37 -20 37 C-20 31.39 -20 25.78 -20 20 C-21.32 19.67 -22.64 19.34 -24 19 C-23.67 17.68 -23.34 16.36 -23 15 C-21.5225254 14.63883954 -20.04295325 14.28624952 -18.5625 13.9375 C-17.73878906 13.74027344 -16.91507812 13.54304687 -16.06640625 13.33984375 C-15.04353516 13.17162109 -15.04353516 13.17162109 -14 13 C-12.34920558 14.65079442 -12.77450553 16.63736179 -12.68359375 18.91015625 C-12.62075195 20.39418945 -12.62075195 20.39418945 -12.55664062 21.90820312 C-12.51732422 22.94912109 -12.47800781 23.99003906 -12.4375 25.0625 C-12.39431641 26.10728516 -12.35113281 27.15207031 -12.30664062 28.22851562 C-12.20018775 30.81886884 -12.0981724 33.40932186 -12 36 C-10.68 36.33 -9.36 36.66 -8 37 C-8 26.77 -8 16.54 -8 6 C-8.99 5.67 -9.98 5.34 -11 5 C-11 3.68 -11 2.36 -11 1 C-4.5 -1.125 -4.5 -1.125 0 0 Z " fill="#354E45" transform="translate(85,228)"/>
<path d="M0 0 C4.31248609 -0.02886537 8.62494762 -0.04675255 12.9375 -0.0625 C14.16919922 -0.07087891 15.40089844 -0.07925781 16.66992188 -0.08789062 C17.83974609 -0.09111328 19.00957031 -0.09433594 20.21484375 -0.09765625 C21.84087524 -0.10551147 21.84087524 -0.10551147 23.49975586 -0.11352539 C26 0 26 0 27 1 C27.07179964 2.51928038 27.08392007 4.04167482 27.0625 5.5625 C27.05347656 6.38878906 27.04445313 7.21507812 27.03515625 8.06640625 C27.02355469 8.70449219 27.01195312 9.34257812 27 10 C27.66 9.67 28.32 9.34 29 9 C30.93246952 8.82587793 32.8727341 8.73294458 34.8125 8.6875 C35.85019531 8.65011719 36.88789063 8.61273438 37.95703125 8.57421875 C41.94306205 9.13195605 43.42787102 9.87670053 46 13 C46.60249903 16.27303526 46.4715682 19.43648713 46.3125 22.75 C46.28994141 23.63816406 46.26738281 24.52632813 46.24414062 25.44140625 C46.18532552 27.62932812 46.10321268 29.81379671 46 32 C47.65 32 49.3 32 51 32 C51 26.39 51 20.78 51 15 C49.68 14.67 48.36 14.34 47 14 C47.125 12.125 47.125 12.125 48 10 C51.59650092 8.40155515 54.03397243 8 58 8 C58 8.66 58 9.32 58 10 C58.99 9.67 59.98 9.34 61 9 C62.77027499 8.95553469 64.54210013 8.96082103 66.3125 9 C70.35186994 9.04802421 74.01741082 8.69695311 78 8 C78.99 8.33 79.98 8.66 81 9 C83.25629652 9.0290867 85.49190079 8.93519878 87.74609375 8.83984375 C90.27109187 9.01926303 91.8281292 9.73843496 94 11 C94.99 10.34 95.98 9.68 97 9 C99.3046875 8.59375 99.3046875 8.59375 101.875 8.5 C102.71804688 8.4484375 103.56109375 8.396875 104.4296875 8.34375 C107.55323218 9.14125077 109.1129584 10.56576411 111.04492188 13.12402344 C112.81457813 16.60000469 112.52246476 20.06333204 112.3125 23.875 C112.28994141 24.65875 112.26738281 25.4425 112.24414062 26.25 C112.18568018 28.1675026 112.09601283 30.0840106 112 32 C113.98 32.495 113.98 32.495 116 33 C115.67 33.99 115.34 34.98 115 36 C110.05 36 105.1 36 100 36 C100.33 34.68 100.66 33.36 101 32 C101.99 32 102.98 32 104 32 C103.67 26.72 103.34 21.44 103 16 C98.28941438 14.6278958 98.28941438 14.6278958 95 16 C95 21.28 95 26.56 95 32 C96.32 32 97.64 32 99 32 C99 33.32 99 34.64 99 36 C94.05 36 89.1 36 84 36 C84 34.68 84 33.36 84 32 C85.32 32 86.64 32 88 32 C87.67 26.72 87.34 21.44 87 16 C82.39467611 14.54685336 82.39467611 14.54685336 80 16 C79.68758545 18.71446979 79.48663408 21.33909361 79.375 24.0625 C79.33632813 24.82111328 79.29765625 25.57972656 79.2578125 26.36132812 C79.16326438 28.24047195 79.08053244 30.12020336 79 32 C80.98 32.495 80.98 32.495 83 33 C83 33.99 83 34.98 83 36 C78.05 36 73.1 36 68 36 C68 34.68 68 33.36 68 32 C68.99 32 69.98 32 71 32 C70.67 26.72 70.34 21.44 70 16 C69.01 17.485 69.01 17.485 68 19 C64.875 19.1875 64.875 19.1875 62 19 C62 18.01 62 17.02 62 16 C61.34 16 60.68 16 60 16 C59.67 21.28 59.34 26.56 59 32 C60.32 32.33 61.64 32.66 63 33 C62.67 33.99 62.34 34.98 62 36 C58.73012965 36.22587773 55.45920719 36.42766605 52.1875 36.625 C51.25873047 36.68945312 50.32996094 36.75390625 49.37304688 36.8203125 C48.48037109 36.871875 47.58769531 36.9234375 46.66796875 36.9765625 C45.84578857 37.02893066 45.0236084 37.08129883 44.17651367 37.13525391 C42 37 42 37 39 35 C38.01 35.66 37.02 36.32 36 37 C31.05586667 37.5582086 29.09765825 37.77750793 25 34.875 C23 32 23 32 22.4375 28.9375 C23.11056889 25.4225847 24.26293696 24.22386372 27 22 C26.67 21.443125 26.34 20.88625 26 20.3125 C24.8690399 17.69715478 24.84337026 15.8193354 25 13 C24.360625 12.773125 23.72125 12.54625 23.0625 12.3125 C21 11 21 11 20.25 8.375 C20.1675 7.59125 20.085 6.8075 20 6 C17.69 5.67 15.38 5.34 13 5 C13 8.63 13 12.26 13 16 C15.97 16 18.94 16 22 16 C22.33 17.32 22.66 18.64 23 20 C22 21 22 21 19.93359375 21.09765625 C16.46679688 21.04882812 16.46679688 21.04882812 13 21 C13 24.3 13 27.6 13 31 C14.32 31.33 15.64 31.66 17 32 C17 33.32 17 34.64 17 36 C11.39 36 5.78 36 0 36 C0.33 34.35 0.66 32.7 1 31 C2.32 31 3.64 31 5 31 C4.67 22.42 4.34 13.84 4 5 C2.68 4.67 1.36 4.34 0 4 C0 2.68 0 1.36 0 0 Z " fill="#344D44" transform="translate(256,233)"/>
<path d="M0 0 C0.33 8.25 0.66 16.5 1 25 C6.45486462 25 7.43746215 24.43296553 11.625 21.3125 C12.56601563 20.62800781 13.50703125 19.94351562 14.4765625 19.23828125 C17.04114271 16.96350655 18.51641886 15.07559678 20 12 C20.25136033 8.79083829 20.25136033 8.79083829 20 6 C18.02 5.67 16.04 5.34 14 5 C14.33 7.31 14.66 9.62 15 12 C12.125 12.625 12.125 12.625 9 13 C7 11 7 11 6.5 7.625 C7 4 7 4 9.4375 1.5625 C13.83971662 -0.36829676 17.26657193 -0.73359402 22 0 C25.63467079 1.62400184 26.77408696 2.66113044 29 6 C29.45503819 10.11929308 28.95286567 13.70595481 26.47265625 17.07421875 C23.81277767 19.75659102 21.14701312 21.90199126 18 24 C21.63 24.33 25.26 24.66 29 25 C29.495 27.475 29.495 27.475 30 30 C29 31 29 31 27.24729919 31.12025452 C26.48562943 31.11803391 25.72395966 31.11581329 24.93920898 31.11352539 C24.07839218 31.11344986 23.21757538 31.11337433 22.33067322 31.11329651 C21.39526199 31.10813522 20.45985077 31.10297394 19.49609375 31.09765625 C18.54307877 31.0962413 17.59006378 31.09482635 16.60816956 31.09336853 C13.55124835 31.08775152 10.49439923 31.07519616 7.4375 31.0625 C5.37044376 31.05748719 3.30338638 31.05292391 1.23632812 31.04882812 C-3.84247588 31.03777656 -8.9212257 31.02050055 -14 31 C-14 29.68 -14 28.36 -14 27 C-12.02 26.67 -10.04 26.34 -8 26 C-7.505 17.09 -7.505 17.09 -7 8 C-8.98 8 -10.96 8 -13 8 C-13.33 6.35 -13.66 4.7 -14 3 C-12.60764957 2.49038154 -11.21090882 1.99275091 -9.8125 1.5 C-9.03519531 1.2215625 -8.25789062 0.943125 -7.45703125 0.65625 C-5 0 -5 0 0 0 Z " fill="#324C43" transform="translate(189,238)"/>
<path d="M0 0 C2.5 0.25 2.5 0.25 4.5 2.25 C4.8125 4.75 4.8125 4.75 4.5 7.25 C0.81749647 9.70500235 -1.22157798 9.43198325 -5.49536133 9.30810547 C-6.48765747 9.27934326 -6.48765747 9.27934326 -7.5 9.25 C-11.49364621 16.65914765 -13.95766636 24.34467769 -16.41210938 32.37695312 C-16.90227539 33.87452148 -16.90227539 33.87452148 -17.40234375 35.40234375 C-17.68585693 36.30976318 -17.96937012 37.21718262 -18.26147461 38.15209961 C-19.5 40.25 -19.5 40.25 -22.13110352 41.05297852 C-23.30370728 41.15050415 -23.30370728 41.15050415 -24.5 41.25 C-26.91972204 35.6634528 -29.23679901 30.08606364 -31.21484375 24.328125 C-31.51060303 23.47968018 -31.8063623 22.63123535 -32.11108398 21.75708008 C-32.69679362 20.06397547 -33.26831029 18.36588416 -33.82446289 16.6628418 C-35.52275968 11.75407201 -35.52275968 11.75407201 -39.21875 8.19140625 C-39.9715625 7.88074219 -40.724375 7.57007813 -41.5 7.25 C-40.84 5.93 -40.18 4.61 -39.5 3.25 C-38.2625 3.311875 -37.025 3.37375 -35.75 3.4375 C-34.70585938 3.48970703 -34.70585938 3.48970703 -33.640625 3.54296875 C-30.38829095 4.61718857 -29.36963324 6.41539477 -27.5 9.25 C-26.26852187 11.80253703 -25.2449651 14.41010579 -24.25 17.0625 C-23.981875 17.75537109 -23.71375 18.44824219 -23.4375 19.16210938 C-22.7836888 20.85501337 -22.14071799 22.55209733 -21.5 24.25 C-19.39149671 21.08724506 -18.21169124 18.11528462 -16.875 14.5625 C-16.42898437 13.38300781 -15.98296875 12.20351562 -15.5234375 10.98828125 C-15.18570313 10.08464844 -14.84796875 9.18101562 -14.5 8.25 C-15.82 7.92 -17.14 7.59 -18.5 7.25 C-18.17 5.93 -17.84 4.61 -17.5 3.25 C-16.12714844 3.17652344 -16.12714844 3.17652344 -14.7265625 3.1015625 C-13.53804687 3.02679688 -12.34953125 2.95203125 -11.125 2.875 C-9.94164063 2.80539063 -8.75828125 2.73578125 -7.5390625 2.6640625 C-4.02172218 2.18483618 -3.39323555 0.33932356 0 0 Z " fill="#364F46" transform="translate(68.5,228.75)"/>
<path d="M0 0 C8.58 0 17.16 0 26 0 C26 3.96 26 7.92 26 12 C23.525 11.505 23.525 11.505 21 11 C20.67 9.35 20.34 7.7 20 6 C17.69 5.67 15.38 5.34 13 5 C13 8.63 13 12.26 13 16 C15.97 16 18.94 16 22 16 C22.33 17.32 22.66 18.64 23 20 C22 21 22 21 19.93359375 21.09765625 C16.46679688 21.04882812 16.46679688 21.04882812 13 21 C13 24.3 13 27.6 13 31 C14.32 31.33 15.64 31.66 17 32 C17 33.32 17 34.64 17 36 C11.39 36 5.78 36 0 36 C0.33 34.35 0.66 32.7 1 31 C2.32 31 3.64 31 5 31 C4.67 22.42 4.34 13.84 4 5 C2.68 4.67 1.36 4.34 0 4 C0 2.68 0 1.36 0 0 Z " fill="#334C43" transform="translate(256,233)"/>
<path d="M0 0 C2.93835112 1.30788882 3.85011181 2.4091091 6 5 C7 8.6875 7 8.6875 7 12 C5 14 5 14 1.5234375 14.1953125 C0.14049032 14.18201493 -1.24238654 14.15816232 -2.625 14.125 C-3.33140625 14.11597656 -4.0378125 14.10695313 -4.765625 14.09765625 C-6.51056098 14.07407603 -8.25532295 14.03820461 -10 14 C-9.01 16.31 -8.02 18.62 -7 21 C-5.72125 21.061875 -4.4425 21.12375 -3.125 21.1875 C-2.40570313 21.22230469 -1.68640625 21.25710938 -0.9453125 21.29296875 C-0.30335938 21.19628906 0.33859375 21.09960938 1 21 C1.66 20.01 2.32 19.02 3 18 C4.32 18.33 5.64 18.66 7 19 C6.76066439 22.2310308 5.72646062 23.30089331 3.5 25.75 C0.1694114 28.3360099 -2.67294591 28.67323055 -6.8203125 28.421875 C-11.25382327 27.56377614 -13.91697402 25.19132858 -16.875 21.9375 C-18.65654198 17.28569593 -18.88893773 12.8996568 -18 8 C-13.69006203 0.46090361 -8.36356492 -1.11428813 0 0 Z " fill="#334C43" transform="translate(168,242)"/>
<path d="M0 0 C0.4418949 7.95410823 -0.63758439 15.44908559 -5.6875 21.875 C-8.9569538 25.3315121 -12.64273218 27.20847873 -17 29 C-17.928125 29.4125 -18.85625 29.825 -19.8125 30.25 C-22 31 -22 31 -25 31 C-25.63447923 22.59315014 -23.51787049 14.76967937 -18.25 8.0625 C-13.4842784 3.0313458 -6.97062367 0 0 0 Z " fill="#B2D085" transform="translate(408,328)"/>
<path d="M0 0 C3.84101626 7.98382666 7.10524029 15.28799861 4.3359375 24.1171875 C1.97122272 29.40181096 -1.76358792 34.07662329 -6 38 C-6.66 38 -7.32 38 -8 38 C-15.10508268 21.81056161 -15.10508268 21.81056161 -12.3359375 12.8515625 C-10.32816721 8.29479689 -5.48949881 0 0 0 Z " fill="#B4D186" transform="translate(436,273)"/>
<path d="M0 0 C2.22930808 1.46070676 4.18662034 2.94513167 6.140625 4.75390625 C6.73359375 5.23214844 7.3265625 5.71039063 7.9375 6.203125 C9.140625 7.75390625 9.140625 7.75390625 9.13671875 9.80078125 C7.3238586 13.35540899 3.79183216 13.81173759 0.1875 14.98828125 C-6.78572617 16.74052783 -12.64009008 16.62399017 -18.96484375 13.04296875 C-22.15973512 10.86912514 -25.04308588 8.3941773 -27.859375 5.75390625 C-26.859375 2.75390625 -26.859375 2.75390625 -25.3203125 1.5859375 C-17.62036704 -2.17751899 -8.0240875 -3.49683594 0 0 Z " fill="#7C9E5D" transform="translate(284.859375,357.24609375)"/>
<path d="M0 0 C6.50604251 1.97152803 11.25436441 6.39704302 14.9375 12 C18.02027596 17.96273771 17.75027792 24.46073564 17 31 C15.97265625 33.921875 15.97265625 33.921875 15 36 C7.46794622 33.56315907 2.97129428 28.60294393 -0.8671875 21.890625 C-3.70549187 14.64805522 -2.6458212 7.12664742 0 0 Z " fill="#B2D185" transform="translate(430,211)"/>
<path d="M0 0 C0.763125 0.495 1.52625 0.99 2.3125 1.5 C0.4539521 7.63320806 -3.68404509 12.5946911 -9.125 15.9375 C-15.08326324 18.63318026 -22.31284622 18.13159012 -28.6875 17.5 C-31.140625 16.4765625 -31.140625 16.4765625 -32.6875 15.5 C-29.96599175 7.56226759 -24.7294401 3.59807195 -17.6875 -0.5 C-11.85125752 -2.44541416 -5.67462842 -2.30832343 0 0 Z " fill="#9ABA72" transform="translate(353.6875,361.5)"/>
<path d="M0 0 C8.74690958 -0.65738778 15.22660007 1.01105143 22.3125 6.25 C27.38038547 11.43574328 29.40464299 16.85571586 30 24 C21.57045594 24.54384155 14.55134011 22.83714975 7.625 17.8125 C2.92603011 12.7778894 0.70140775 6.83872555 0 0 Z " fill="#B2D184" transform="translate(396,160)"/>
<path d="M0 0 C3.86703774 2.1736693 6.87299439 4.32662622 9.625 7.8125 C9.625 8.8025 9.625 9.7925 9.625 10.8125 C1.99991171 15.44127989 -5.6271988 15.77899889 -14.375 14.8125 C-19.81798119 13.17315879 -23.67913961 8.95907507 -27.375 4.8125 C-27.375 4.1525 -27.375 3.4925 -27.375 2.8125 C-18.01717751 -2.25556634 -10.02543779 -4.67853764 0 0 Z " fill="#A0BF77" transform="translate(368.375,129.1875)"/>
<path d="M0 0 C-3.47449957 7.25112954 -8.69699892 12.75495596 -15.875 16.5 C-22.76057085 17.60169134 -29.49969512 17.81094265 -36 15 C-34.14600713 8.40802535 -29.11308308 3.76090256 -24 -0.5 C-17.3081576 -3.95286846 -6.56484682 -3.14408373 0 0 Z " fill="#81A360" transform="translate(315,123)"/>
<path d="M0 0 C-0.43367329 8.13511266 -0.92344326 15.34139199 -6.3125 21.75 C-12.26777214 26.73580923 -16.30763874 28.65811728 -24 29 C-24.4776407 21.78231825 -24.47875883 15.93404182 -20 10 C-14.34928136 3.90801049 -8.54204153 -0.24738451 0 0 Z " fill="#6C9051" transform="translate(252,142)"/>
<path d="M0 0 C7.73454156 -0.58373899 14.7169485 0.99953198 21.15234375 5.5078125 C25.63662338 9.58443034 27.84928559 14.07108097 29 20 C29 21.32 29 22.64 29 24 C20.51125546 24.53054653 14.47630373 23.23366342 7.75 17.875 C3.02364439 13.48358298 0.27728818 8.39678023 -0.25 1.9375 C-0.1675 1.298125 -0.085 0.65875 0 0 Z " fill="#6C8F50" transform="translate(210,316)"/>
<path d="M0 0 C4.38493576 4.05330197 5.8661656 8.56309857 6.1875 14.4140625 C6.1875 17.60998619 6.09982389 20.80563568 6 24 C0.39 24 -5.22 24 -11 24 C-11.52394718 15.61684513 -9.78677265 10.88459218 -4.9375 4.125 C-3 2 -3 2 0 0 Z " fill="#6E9052" transform="translate(206,189)"/>
<path d="M0 0 C2.1796875 1.10546875 2.1796875 1.10546875 5.3671875 3.10546875 C3.99440659 6.4808115 2.7894938 7.76874225 -0.5078125 9.29296875 C-1.52488281 9.77830078 -1.52488281 9.77830078 -2.5625 10.2734375 C-9.40599902 13.02374937 -15.35538162 12.82220096 -22.1328125 10.10546875 C-23.63873758 9.45229642 -25.14099034 8.79023958 -26.6328125 8.10546875 C-26.6328125 7.11546875 -26.6328125 6.12546875 -26.6328125 5.10546875 C-24.98828125 3.75390625 -24.98828125 3.75390625 -22.8203125 2.48046875 C-21.75876953 1.84238281 -21.75876953 1.84238281 -20.67578125 1.19140625 C-14.63222097 -2.02104071 -6.43471581 -2.18627585 0 0 Z " fill="#789A5B" transform="translate(274.6328125,333.89453125)"/>
<path d="M0 0 C7.63472327 2.04834039 12.2410835 5.34735813 16.375 12.0625 C19.57717637 17.61921781 20.12345366 21.58040945 20 28 C13.37079046 27.07797966 8.43732902 23.09264862 4.34375 17.8984375 C0.40928225 11.79086256 -0.11946332 7.16779945 0 0 Z " fill="#B5D288" transform="translate(412,238)"/>
<path d="M0 0 C4.84035242 3.97600377 7.4162033 9.32791875 8.390625 15.45703125 C8.67820306 21.97889092 6.77970485 27.16758358 4 33 C3.01 33 2.02 33 1 33 C-3.19133833 25.74000325 -6.6321733 19.51158144 -5 11 C-2.26720648 2.26720648 -2.26720648 2.26720648 0 0 Z " fill="#709255" transform="translate(227,179)"/>
<path d="M0 0 C15.46812613 -1.10049909 15.46812613 -1.10049909 22.1953125 4.28125 C25.92521888 7.83354179 28.92825223 10.79755768 30 16 C20.96029363 16.45620948 13.3620704 15.99944208 6.125 10.125 C3.50709075 7.68323777 1.54271823 5.26693273 0 2 C0 1.34 0 0.68 0 0 Z " fill="#B3D185" transform="translate(394,192)"/>
<path d="M0 0 C0.91833827 15.67297314 0.91833827 15.67297314 -3.43359375 21.3515625 C-6.93685649 25.03828788 -10.11312739 28.37104246 -15 30 C-16.68097906 28.31902094 -16.25167822 26.30482547 -16.3125 24 C-16.24129982 16.16797967 -13.48472021 9.64603551 -8 4 C-2.59459459 0 -2.59459459 0 0 0 Z " fill="#77995A" transform="translate(275,144)"/>
<path d="M0 0 C-0.85946934 5.56240829 -3.05071767 9.03469624 -7 13 C-13.25003493 17.37825166 -19.45439462 18.82340073 -27 19 C-26.60795559 12.72728939 -22.4257134 8.22788823 -17.98828125 4.15234375 C-12.12343474 -0.30157021 -7.2159073 -0.72833457 0 0 Z " fill="#8FB06B" transform="translate(329,345)"/>
<path d="M0 0 C0.65725892 8.50054871 0.06983238 14.95317556 -5 22 C-7.45002163 24.65498453 -9.93845521 27.06571856 -13 29 C-13.99 29 -14.98 29 -16 29 C-16.40214254 20.06349904 -16.24148686 12.93400828 -10.625 5.6875 C-7.28889847 2.27196748 -4.87627425 0 0 0 Z " fill="#A7C67C" transform="translate(376,327)"/>
<path d="M0 0 C10.8211732 -0.54611528 18.08224884 0.80461566 26.37109375 7.98828125 C28.39790093 10.49141241 29.13588598 12.92132241 30 16 C21.66180705 16.64879311 15.16490038 16.73309927 8.1328125 11.859375 C4.8405505 8.98919787 2.12133646 5.82875361 0 2 C0 1.34 0 0.68 0 0 Z " fill="#6F9254" transform="translate(211,292)"/>
<path d="M0 0 C-2.0186991 7.31644912 -6.6734287 12.84912742 -12.796875 17.30859375 C-17.56186653 19.6797443 -22.83038365 19.28084435 -28 19 C-26.68806752 12.60432915 -22.7910127 8.20810615 -18 4 C-12.12110601 0.51173221 -6.75171254 -0.50012685 0 0 Z " fill="#8EAF6A" transform="translate(334,136)"/>
<path d="M0 0 C0 0.66 0 1.32 0 2 C-7.69371236 6.51149625 -13.9917207 9.43470298 -23 8 C-26.52848214 7.03297716 -29.72536634 5.63731683 -33 4 C-33 3.34 -33 2.68 -33 2 C-31.390625 0.74609375 -31.390625 0.74609375 -29.25 -0.5625 C-28.55390625 -0.99691406 -27.8578125 -1.43132812 -27.140625 -1.87890625 C-18.46224786 -6.42396873 -8.18781186 -4.63148954 0 0 Z " fill="#A6C57B" transform="translate(388,159)"/>
<path d="M0 0 C3.6702064 1.22340213 4.29925941 2.83704879 6.1328125 6.11328125 C8.93935612 12.21940993 9.31091769 20.2447074 7.10546875 26.5625 C6 28.75 6 28.75 4 32 C0.3297936 30.77659787 -0.29925941 29.16295121 -2.1328125 25.88671875 C-4.84690477 19.98173422 -4.59426454 13.3594023 -4 7 C-2.95965482 4.2015169 -1.79895552 2.41734648 0 0 Z " fill="#B2D184" transform="translate(405,288)"/>
<path d="M0 0 C3.57073832 4.02536813 3.5157712 7.17064559 3.3359375 12.37890625 C2.85508934 16.13064015 1.91645117 17.58147952 -1 20 C-4.56467898 22.21605265 -8.24892124 24.12446062 -12 26 C-11.46669427 21.8150314 -10.17590296 19.54222714 -7.5 16.3125 C-4.99759535 13.31933753 -4.99759535 13.31933753 -3 10 C-4.14842923 11.28935919 -5.29366227 12.58156579 -6.4375 13.875 C-7.07558594 14.59429687 -7.71367187 15.31359375 -8.37109375 16.0546875 C-10.05014465 17.90750491 -10.05014465 17.90750491 -11 20 C-11.66 20 -12.32 20 -13 20 C-13.50464541 14.70122324 -12.36521927 12.09283425 -9 8 C-4.8 5 -4.8 5 -2 5 C-1.34 3.35 -0.68 1.7 0 0 Z " fill="#374F46" transform="translate(248,240)"/>
<path d="M0 0 C2.375 0.6875 2.375 0.6875 3.375 1.6875 C3.44819621 4.38404854 3.46742537 7.05441458 3.4375 9.75 C3.43298828 10.50861328 3.42847656 11.26722656 3.42382812 12.04882812 C3.4120068 13.92841871 3.39407078 15.80796899 3.375 17.6875 C2.055 17.6875 0.735 17.6875 -0.625 17.6875 C-0.955 18.6775 -1.285 19.6675 -1.625 20.6875 C-1.955 20.0275 -2.285 19.3675 -2.625 18.6875 C-3.615 18.3575 -4.605 18.0275 -5.625 17.6875 C-5.70574203 15.06188891 -5.7653623 12.43874324 -5.8125 9.8125 C-5.83763672 9.06613281 -5.86277344 8.31976563 -5.88867188 7.55078125 C-5.91796875 5.3828125 -5.91796875 5.3828125 -5.625 1.6875 C-2.625 -0.3125 -2.625 -0.3125 0 0 Z " fill="#F1F3F2" transform="translate(340.625,247.3125)"/>
<path d="M0 0 C2.375 0.6875 2.375 0.6875 3.375 1.6875 C3.44819621 4.38404854 3.46742537 7.05441458 3.4375 9.75 C3.43298828 10.50861328 3.42847656 11.26722656 3.42382812 12.04882812 C3.4120068 13.92841871 3.39407078 15.80796899 3.375 17.6875 C2.385 18.0175 1.395 18.3475 0.375 18.6875 C-0.285 19.3475 -0.945 20.0075 -1.625 20.6875 C-1.625 19.6975 -1.625 18.7075 -1.625 17.6875 C-2.945 17.6875 -4.265 17.6875 -5.625 17.6875 C-5.70574203 15.06188891 -5.7653623 12.43874324 -5.8125 9.8125 C-5.83763672 9.06613281 -5.86277344 8.31976563 -5.88867188 7.55078125 C-5.91796875 5.3828125 -5.91796875 5.3828125 -5.625 1.6875 C-2.625 -0.3125 -2.625 -0.3125 0 0 Z " fill="#F2F4F3" transform="translate(356.625,247.3125)"/>
<path d="M0 0 C3.6051607 2.78112397 7.07933912 5.49520695 10 9 C10.3125 12.3125 10.3125 12.3125 10 15 C9.01 14.34 8.02 13.68 7 13 C7.66 14.65 8.32 16.3 9 18 C4.52167812 16.46457536 0.19572974 14.39145948 -2 10 C-2.35294118 3.52941176 -2.35294118 3.52941176 0 0 Z " fill="#AFCC85" transform="translate(224,242)"/>
<path d="M0 0 C0.99 0.33 1.98 0.66 3 1 C1.60415208 4.37329915 0.07634389 6.04232662 -3 8 C-5.88211302 8.96070434 -7.69850044 9.10581883 -10.6875 9.0625 C-11.89986328 9.04896484 -11.89986328 9.04896484 -13.13671875 9.03515625 C-14.05904297 9.01775391 -14.05904297 9.01775391 -15 9 C-15 8.01 -15 7.02 -15 6 C-9.65125413 1.11636247 -7.20391834 -0.25276906 0 0 Z " fill="#8CAC6C" transform="translate(305,328)"/>
<path d="M0 0 C-1.25920437 4.51214898 -2.66780467 7.66780467 -6 11 C-9.54416155 12.80316991 -12.01265607 14 -16 14 C-14.67474436 8.93993301 -12.65609819 5.74112373 -9 2 C-5.59348204 0.17211232 -3.95533952 0 0 0 Z " fill="#B7D38C" transform="translate(426,315)"/>
<path d="M0 0 C1.69867523 0.9751016 3.34835906 2.03449916 4.98828125 3.10546875 C4.98828125 3.76546875 4.98828125 4.42546875 4.98828125 5.10546875 C0.75546518 7.22187678 -3.34990897 7.86191336 -8.01171875 7.10546875 C-10.58281496 5.98971002 -12.66361096 4.67087394 -15.01171875 3.10546875 C-11.02162938 -1.26462913 -5.57320517 -2.47818249 0 0 Z " fill="#86A667" transform="translate(290.01171875,311.89453125)"/>
<path d="M0 0 C5.64028777 2.92086331 5.64028777 2.92086331 7 7 C2.29855615 8.56714795 -2.56777508 9.18731563 -7.14453125 6.953125 C-9.0625 5.625 -9.0625 5.625 -12 3 C-12 2.34 -12 1.68 -12 1 C-7.93437527 -0.35520824 -4.25094619 -0.53589441 0 0 Z " fill="#799A5D" transform="translate(262,308)"/>
<path d="M0 0 C0.66 0 1.32 0 2 0 C4.01352876 4.15290308 4.47545228 7.4039613 4 12 C2.86450312 14.53265173 1.52642287 16.66266498 0 19 C-0.66 19 -1.32 19 -2 19 C-4.44715195 14.67343535 -4.70838598 10.88280334 -4 6 C-2.92729008 3.51556336 -1.81165918 2.07807965 0 0 Z " fill="#B2CF88" transform="translate(383,273)"/>
<path d="M0 0 C0.66 0 1.32 0 2 0 C3.35520824 4.06562473 3.53589441 7.74905381 3 12 C0.07913669 17.64028777 0.07913669 17.64028777 -4 19 C-5.56714795 14.29855615 -6.18731563 9.43222492 -3.953125 4.85546875 C-2.625 2.9375 -2.625 2.9375 0 0 Z " fill="#B1CE87" transform="translate(381,298)"/>
<path d="M0 0 C3.81383716 1.22587623 5.40120903 3.58682727 7.2421875 7.05859375 C8.44410869 10.13774237 8.37454023 12.7539847 8 16 C7.34 16.99 6.68 17.98 6 19 C5.01524786 17.90081184 4.03739527 16.7954398 3.0625 15.6875 C2.51722656 15.07261719 1.97195313 14.45773437 1.41015625 13.82421875 C-1.45537665 10.11728284 -1.16400971 6.51026716 -1 2 C-0.67 1.34 -0.34 0.68 0 0 Z " fill="#B6D38A" transform="translate(397,260)"/>
<path d="M0 0 C0.66 0.33 1.32 0.66 2 1 C3.24133624 4.72400871 3.54111486 8.13176 3 12 C0.98497111 15.75212276 -0.45466142 17.63644095 -4 20 C-5.45278825 15.64163525 -5.64609644 11.55016857 -5 7 C-3.60514619 4.23955505 -2.05169024 2.35944378 0 0 Z " fill="#79995E" transform="translate(257,182)"/>
<path d="M0 0 C1.68156088 0.96723929 3.30778346 2.02940772 4.921875 3.10546875 C2.03359299 6.26882523 -0.06632174 7.01001561 -4.390625 7.41796875 C-8.69703868 7.05301844 -10.71342211 5.73157832 -14.078125 3.10546875 C-13.748125 2.11546875 -13.418125 1.12546875 -13.078125 0.10546875 C-8.65134873 -1.37012334 -4.33539568 -1.86617596 0 0 Z " fill="#A1BF7B" transform="translate(355.078125,181.89453125)"/>
<path d="M0 0 C0.66 0.33 1.32 0.66 2 1 C0.77407639 4.81398458 -1.58833958 6.39689141 -5.0546875 8.24609375 C-8.09681656 9.42507148 -10.79358325 9.31435458 -14 9 C-14.66 8.67 -15.32 8.34 -16 8 C-13.31338269 0.47747153 -7.04954381 -0.58746198 0 0 Z " fill="#9AB975" transform="translate(344,163)"/>
<path d="M0 0 C-0.4770795 5.00933477 -1.85582479 8.06978099 -5 12 C-8.43602812 14.57702109 -9.60072868 15 -14 15 C-13.61015648 9.54219073 -11.84460059 6.84460059 -8 3 C-2.9 0 -2.9 0 0 0 Z " fill="#87A768" transform="translate(300,161)"/>
<path d="M0 0 C-0.32005533 5.28091297 -3.28103704 8.52299367 -7 12 C-10.03525926 13.62351077 -11.56198263 14 -15 14 C-14.67994467 8.71908703 -11.71896296 5.47700633 -8 2 C-4.96474074 0.37648923 -3.43801737 0 0 0 Z " fill="#74965A" transform="translate(225,171)"/>
<path d="M0 0 C0.66 0.33 1.32 0.66 2 1 C2.28951652 6.59731932 2.18452849 10.1683016 -1 15 C-3.6875 17.375 -3.6875 17.375 -6 19 C-7.36277803 14.9116659 -7.87754723 11.15911373 -6.2109375 7.05859375 C-4.46140904 3.86002835 -3.05752105 2.03834737 0 0 Z " fill="#B6D38A" transform="translate(443,253)"/>
<path d="M0 0 C6.2892432 1.60887617 9.44674491 4.67011737 13 10 C13.125 12.6875 13.125 12.6875 13 15 C8.07395127 14.56534864 5.48108776 12.40373025 2 9 C0.17211232 5.59348204 0 3.95533952 0 0 Z " fill="#B2CF87" transform="translate(383,142)"/>
<path d="M0 0 C5.92056487 5.76875552 5.92056487 5.76875552 6.1328125 9.05859375 C6.13023437 9.84363281 6.12765625 10.62867188 6.125 11.4375 C6.12757813 12.21996094 6.13015625 13.00242187 6.1328125 13.80859375 C6 16 6 16 5 19 C1.98425729 17.96008872 1.02008949 17.03085171 -0.75 14.3125 C-2.44547713 9.81948561 -2.8477102 6.06629361 -1 1.5625 C-0.67 1.046875 -0.34 0.53125 0 0 Z " fill="#729457" transform="translate(203,291)"/>
<path d="M0 0 C0.87527344 -0.01417969 1.75054687 -0.02835938 2.65234375 -0.04296875 C5.0625 0.1875 5.0625 0.1875 8.0625 2.1875 C0.92839881 8.00609317 0.92839881 8.00609317 -3.46875 8.43359375 C-9.28639241 7.83860759 -9.28639241 7.83860759 -11.9375 5.1875 C-7.66213542 1.69970258 -5.52695954 0.04057973 0 0 Z " fill="#7A9B5D" transform="translate(268.9375,133.8125)"/>
<path d="M0 0 C-0.47742441 5.01295633 -1.68532319 8.17537291 -5 12 C-7.64245322 13.34901531 -10.13670357 14.14101107 -13 15 C-12.6298852 8.83142002 -11.24224897 6.24224897 -7 2 C-4.28509275 0.24329531 -3.28565953 0 0 0 Z " fill="#9DBC77" transform="translate(349,324)"/>
<path d="M0 0 C-0.9282508 3.34170288 -1.92931829 4.93461942 -4.5 7.3125 C-9.12237862 9.54114683 -12.96103417 9.3585035 -18 9 C-13.93943857 0.87887713 -8.48248918 -0.67859913 0 0 Z " fill="#93B36F" transform="translate(331,318)"/>
<path d="M0 0 C-0.43379535 5.42244184 -1.41561741 8.84966227 -5 13 C-7.30551587 14.31602408 -9.47190304 15.12488951 -12 16 C-12.50657287 10.68098483 -11.32610043 8.13515188 -8 4 C-3.68421053 0 -3.68421053 0 0 0 Z " fill="#A5C37C" transform="translate(364,303)"/>
<path d="M0 0 C5.92056487 5.76875552 5.92056487 5.76875552 6.1328125 9.05859375 C6.13023437 9.84363281 6.12765625 10.62867188 6.125 11.4375 C6.12757813 12.21996094 6.13015625 13.00242188 6.1328125 13.80859375 C6 16 6 16 5 19 C4.34 19 3.68 19 3 19 C-0.18340708 15.37284527 -2.33797279 11.56433329 -2.4375 6.6875 C-2 3 -2 3 0 0 Z " fill="#B5D289" transform="translate(428,190)"/>
<path d="M0 0 C11.92689295 -0.56396867 11.92689295 -0.56396867 16 3 C17.8125 5.1875 17.8125 5.1875 19 7 C15.2272164 8.25759453 11.89972638 8.75233659 8 8 C5.01129847 6.35088625 2.38479657 4.44822201 0 2 C0 1.34 0 0.68 0 0 Z " fill="#8CAC69" transform="translate(296,369)"/>
<path d="M0 0 C4.92178161 0.43427485 7.45459675 2.69095697 11 6 C13.1519437 9.22791555 13.20086443 10.28400809 13 14 C9.9004167 13.9262004 7.72385457 13.60238013 5.30078125 11.5859375 C1.96292684 7.91672224 0.24911344 5.10682548 0 0 Z " fill="#709355" transform="translate(239,343)"/>
<path d="M0 0 C3.89511913 0 5.99806266 0.15473626 9.0234375 2.70703125 C14 8.18125 14 8.18125 14 13 C8.89317452 12.75088656 6.08327776 11.03707316 2.4140625 7.69921875 C0.39761987 5.27614543 0.0737996 3.0995833 0 0 Z " fill="#B3D186" transform="translate(392,219)"/>
<path d="M0 0 C2.83094621 1.37944288 4.61220265 2.86622365 7 5 C7 5.66 7 6.32 7 7 C2.28232572 8.50965577 -2.24784024 8.77873767 -6.8125 6.75 C-9.0600516 4.95195872 -9.98929671 3.6645814 -11 1 C-7.50375435 -0.74812282 -3.81426638 -0.57151874 0 0 Z " fill="#ABC981" transform="translate(378,184)"/>
<path d="M0 0 C1.22589844 0.01353516 1.22589844 0.01353516 2.4765625 0.02734375 C3.41628906 0.04474609 3.41628906 0.04474609 4.375 0.0625 C2.80353994 3.39399534 1.16392837 5.61162355 -1.625 8.0625 C-4.50711302 9.02320434 -6.32350044 9.16831883 -9.3125 9.125 C-10.52486328 9.11146484 -10.52486328 9.11146484 -11.76171875 9.09765625 C-12.68404297 9.08025391 -12.68404297 9.08025391 -13.625 9.0625 C-10.88556209 3.01290795 -6.58372068 -0.09405315 0 0 Z " fill="#8CAD69" transform="translate(317.625,172.9375)"/>
<path d="M0 0 C4.12909332 2.14101135 6.11945033 3.81709513 8 8 C-3.82150518 8.86078921 -3.82150518 8.86078921 -7.75 5.625 C-10 3 -10 3 -10 1 C-6.78501861 -0.6074907 -3.48701742 -0.47314549 0 0 Z " fill="#95B571" transform="translate(331,123)"/>
<path d="M0 0 C3.90604537 1.26682552 5.90166803 2.43283565 8 6 C9.35801295 9.58021596 9.07281411 13.21366624 9 17 C5.82966958 16.66032174 5.00117393 16.00130809 2.8125 13.5625 C0.38604665 10.13199698 -0.12164251 8.51497551 -0.0625 4.375 C-0.05347656 3.55773437 -0.04445313 2.74046875 -0.03515625 1.8984375 C-0.02355469 1.27195313 -0.01195312 0.64546875 0 0 Z " fill="#B1CF84" transform="translate(386,237)"/>
<path d="M0 0 C-0.37819313 5.57834863 -0.69545826 9.04447516 -5 13 C-8.25 14.3125 -8.25 14.3125 -11 15 C-11.50537432 9.69356959 -10.30655751 7.13319688 -7 3 C-4.34200077 0.58363706 -3.64705667 0 0 0 Z " fill="#7B9D5C" transform="translate(283,182)"/>
<path d="M0 0 C5.29877676 -0.50464541 7.90716575 0.63478073 12 4 C15 8.2 15 8.2 15 11 C9.69356959 11.50537432 7.13319688 10.30655751 3 7 C0.58363706 4.34200077 0 3.64705667 0 0 Z " fill="#AAC97F" transform="translate(371,204)"/>
<path d="M0 0 C0.78246094 -0.01417969 1.56492187 -0.02835937 2.37109375 -0.04296875 C4.5625 0.1875 4.5625 0.1875 7.5625 2.1875 C3.25859729 5.69857853 1.12600803 7.33456753 -4.4375 7.375 C-5.7678125 7.39626953 -5.7678125 7.39626953 -7.125 7.41796875 C-9.4375 7.1875 -9.4375 7.1875 -11.4375 5.1875 C-5.13026045 0.04212036 -5.13026045 0.04212036 0 0 Z " fill="#A7C67C" transform="translate(370.4375,358.8125)"/>
<path d="M0 0 C8.6846543 -0.91062395 8.6846543 -0.91062395 11.77734375 1.23046875 C14.02390342 3.86773445 15 5.5058826 15 9 C9.70122324 9.50464541 7.09283425 8.36521927 3 5 C1.125 2.25 1.125 2.25 0 0 Z " fill="#76985A" transform="translate(250,287)"/>
<path d="M0 0 C0 5.61 0 11.22 0 17 C-1.65 17 -3.3 17 -5 17 C-5 11.72 -5 6.44 -5 1 C-3 0 -3 0 0 0 Z " fill="#E8E4DE" transform="translate(307,248)"/>
<path d="M0 0 C2.5625 0.1875 2.5625 0.1875 4.5625 2.1875 C4.8125 5.1875 4.8125 5.1875 4.5625 8.1875 C2.5625 10.1875 2.5625 10.1875 0.0625 10.5 C-1.175 10.3453125 -1.175 10.3453125 -2.4375 10.1875 C-4.4375 7.1875 -4.4375 7.1875 -4.125 4.0625 C-3.21262777 0.24712521 -3.21262777 0.24712521 0 0 Z " fill="#EFF1F1" transform="translate(136.4375,245.8125)"/>
<path d="M0 0 C3.3 0 6.6 0 10 0 C10.33 1.65 10.66 3.3 11 5 C8.59454362 6.20272819 7.05003047 6.10071472 4.375 6.0625 C3.14910156 6.04896484 3.14910156 6.04896484 1.8984375 6.03515625 C0.95871094 6.01775391 0.95871094 6.01775391 0 6 C-1.125 2.25 -1.125 2.25 0 0 Z " fill="#FCFCFC" transform="translate(133,270)"/>
<path d="M0 0 C2.625 0.375 2.625 0.375 5 1 C5.33 2.65 5.66 4.3 6 6 C3.03 6 0.06 6 -3 6 C-2 2 -2 2 0 0 Z " fill="#D4D4CD" transform="translate(161,246)"/>
<path d="M0 0 C-0.75 4.75 -0.75 4.75 -3 7 C-5.625 7.125 -5.625 7.125 -8 7 C-7.6875 4.625 -7.6875 4.625 -7 2 C-4 0 -4 0 0 0 Z " fill="#DDDCD5" transform="translate(295,257)"/>
<path d="M0 0 C4.70588235 0.70588235 4.70588235 0.70588235 6 2 C6.04063832 3.66617115 6.042721 5.33388095 6 7 C4.02 7 2.04 7 0 7 C-0.38133299 5.0085944 -0.71325582 3.00720923 -1 1 C-0.67 0.67 -0.34 0.34 0 0 Z " fill="#E8E5DE" transform="translate(289,246)"/>
<path d="M0 0 C2.5 0.125 2.5 0.125 3.5 1.125 C3.54080783 3.12458364 3.54254356 5.12545254 3.5 7.125 C1.85 7.125 0.2 7.125 -1.5 7.125 C-2.16 5.145 -2.82 3.165 -3.5 1.125 C-2.5 0.125 -2.5 0.125 0 0 Z " fill="#F5F6F6" transform="translate(111.5,245.875)"/>
<path d="M0 0 C0.66666667 1.33333333 1.33333333 2.66666667 2 4 C2.433125 4.598125 2.86625 5.19625 3.3125 5.8125 C4.43243146 9.37591827 2.59986298 11.80027403 1 15 C0.34 15 -0.32 15 -1 15 C-1.02693575 12.87506859 -1.04636628 10.75004088 -1.0625 8.625 C-1.07410156 7.44164062 -1.08570312 6.25828125 -1.09765625 5.0390625 C-1 2 -1 2 0 0 Z " fill="#F4F5F5" transform="translate(124,250)"/>
<path d="M0 0 C-0.875 4.875 -0.875 4.875 -2 6 C-3.66617115 6.04063832 -5.33388095 6.042721 -7 6 C-7 4.35 -7 2.7 -7 1 C-4.53721199 -0.231394 -2.7204945 -0.07159196 0 0 Z " fill="#F5F6F6" transform="translate(115,258)"/>
<path d="M0 0 C0.66 0.99 1.32 1.98 2 3 C1.525625 3.495 1.05125 3.99 0.5625 4.5 C-1.62167907 7.99468651 -1.65913911 10.90966936 -2 15 C-4.32590854 11.36576791 -4.16265833 8.22911669 -4 4 C-3.01 3.67 -2.02 3.34 -1 3 C-0.67 2.01 -0.34 1.02 0 0 Z " fill="#D0D6D4" transform="translate(152,243)"/>
<path d="M0 0 C0.99 0.33 1.98 0.66 3 1 C1.515 7.435 1.515 7.435 0 14 C-0.33 14 -0.66 14 -1 14 C-1.02685938 11.85423363 -1.04633088 9.70837355 -1.0625 7.5625 C-1.07410156 6.36753906 -1.08570313 5.17257813 -1.09765625 3.94140625 C-1 1 -1 1 0 0 Z " fill="#EFEBE6" transform="translate(316,248)"/>
<path d="M0 0 C-0.33 0.66 -0.66 1.32 -1 2 C-4.63 2 -8.26 2 -12 2 C-12 1.34 -12 0.68 -12 0 C-10.56359829 -0.19573608 -9.12580496 -0.38127816 -7.6875 -0.5625 C-6.88699219 -0.66691406 -6.08648437 -0.77132813 -5.26171875 -0.87890625 C-3 -1 -3 -1 0 0 Z " fill="#D8DDDB" transform="translate(143,261)"/>
<path d="M0 0 C1.5 1.375 1.5 1.375 3 3 C3 3.66 3 4.32 3 5 C1.02 5 -0.96 5 -3 5 C-2.01 3.35 -1.02 1.7 0 0 Z " fill="#7C9C62" transform="translate(253,208)"/>
</svg>
